<svg id="JACKED" xmlns="http://www.w3.org/2000/svg" viewBox="0 0 668.93 116.5">
  <defs>
    <style>
      .cls-1 {
        fill: #d7d8db;
      }
    </style>
  </defs>
  <path id="JACKED-2" data-name="JACKED" class="cls-1" d="M105.89,25.65V97.2L86.6,116.5H19.3L0,97.2V59.7H19.63V87.82L28.79,97H77l9.24-9.15V25.65ZM28.51,0,19.63,9.71v9.82h86.26V0ZM226.78,19.08V97.2l19.29,19.3h28.28V97H259.49l-9.15-9.15V28.46l9-9h15V0h-28.5ZM280.4,0V19.41H304V38.83h10.36l9.05-8.76V0ZM304,85.87V97H280.4V116.5h43V77.55l-9.33,0ZM361.88,0H347.52l-9.2,7.28V51.17l23.56-17.7Zm34.49,55.5h-15.8l54.85-41.61V0H415.49L361.88,40.27,338.32,58V116.5H350.1l11.78-9.32V69.67l10.24-7.77,43.66,54.6h19.64V104.91ZM668.93,19.18V53.66H645.37v-25h.11l-.11-.08-9-9H585.7V53.66H562.14V8.87L573.36,0h76.38Zm0,40.52V97.32L649.74,116.5H581.56v-7.63l-9.64,7.63h-9.78V59.7H585.7V97h50.63l9-9V59.7ZM547.24,11.78,537.92,0H450.61V11.78l9.32,11.78h87.31Zm0,46.47-9.32-11.78H450.61V58.25L459.93,70h87.31Zm0,46.47-9.32-11.78H450.61v11.78l9.32,11.78h87.31ZM177.89,0H168.1V40.59L182,77.67H168.1V97h21.12l4.12,11,13,8.54h15.21ZM108.61,116.5h15.21l13-8.54,4.12-11h21.12V77.67H148.16l13.89-37.08V0h-9.8Z"/>
</svg>
